<svg xmlns="http://www.w3.org/2000/svg" viewBox="0 0 128 128">
  <defs>
    <linearGradient id="awsGradient" x1="0%" y1="0%" x2="100%" y2="100%">
      <stop offset="0%" style="stop-color:#FF9900"/>
      <stop offset="100%" style="stop-color:#FF6600"/>
    </linearGradient>
    <linearGradient id="darkGradient" x1="0%" y1="0%" x2="0%" y2="100%">
      <stop offset="0%" style="stop-color:#232F3E"/>
      <stop offset="100%" style="stop-color:#1A242F"/>
    </linearGradient>
  </defs>
  
  <!-- Background circle -->
  <circle cx="64" cy="64" r="60" fill="url(#darkGradient)"/>
  
  <!-- Nav bar lines - subtle background elements -->
  <rect x="20" y="76" width="88" height="5" rx="2.5" fill="#4A5568" opacity="0.45"/>
  <rect x="20" y="86" width="70" height="4" rx="2" fill="#4A5568" opacity="0.32"/>
  <rect x="20" y="95" width="55" height="4" rx="2" fill="#4A5568" opacity="0.22"/>
  
  <!-- Bold "A" - Amazon Ember style with proper compound path -->
  <path fill-rule="evenodd" fill="url(#awsGradient)" d="
    M64 10 
    L30 70 
    L42 70 
    L48 58 
    L80 58 
    L86 70 
    L98 70 
    L64 10 
    Z
    M64 28 
    L74 50 
    L54 50 
    L64 28 
    Z
  "/>
  
  <!-- Toggle switch -->
  <rect x="42" y="105" width="32" height="14" rx="7" fill="#2D3748"/>
  <circle cx="62" cy="112" r="5" fill="url(#awsGradient)"/>
  
  <!-- Arrow hint -->
  <path d="M80 109 L85 112 L80 115" stroke="#FF9900" stroke-width="2" fill="none" stroke-linecap="round" opacity="0.7"/>
</svg>
